<svg width="458" height="433" viewBox="0 0 458 433" fill="none" xmlns="http://www.w3.org/2000/svg">
<path d="M255.171 165.455C237.074 119.2 233.985 73.1608 260.516 19.6029C270.883 0.78231 287.222 -23.8645 313.262 -40.8394C354.507 -67.7233 402.735 -52.5687 427.113 -19.2848C448.288 9.63107 459.147 42.7306 456.597 78.5906C453.435 123.203 426.336 151.198 387.388 168.988C364.474 179.451 339.895 181.439 315.047 180.578C298.761 180.013 282.612 178.258 266.616 174.973C260.85 173.789 257.325 170.952 255.171 165.455ZM201.603 -427.247C176.655 -419.437 152.851 -409.001 131.969 -393.138C79.9229 -353.657 41.4104 -303.8 18.443 -242.356C3.88634 -203.449 -1.65986 -163.227 0.888202 -121.777C3.19799 -84.1391 11.8528 -47.6602 23.0265 -12.0041C53.8137 86.2488 116.633 157.859 207.9 204.738C216.102 208.951 222.569 213.646 226.167 222.519C228.942 229.386 233.048 235.79 237.026 242.11C264.235 285.355 298.413 322.54 337.423 355.178C392.658 401.395 455.576 429.449 528.438 432.358C598.369 435.147 659.751 416.003 707.431 362.004C708.545 360.74 709.623 359.16 711.981 359.846C715.047 363.248 714.37 367.949 715.487 372.082C718.227 382.272 720.278 392.684 723.471 402.715C726.042 410.751 731.955 414.525 738.026 413.664C744.379 412.761 748.175 408.025 748.311 398.93C748.793 367.693 748.941 336.446 749.164 305.202C749.207 300.334 748.433 295.563 746.84 290.932C742.109 277.176 733.26 272.157 719.176 276.165C704.721 280.281 689.965 282.557 675.163 284.773C662.974 286.593 650.795 288.514 638.719 290.883C632.271 292.139 625.762 293.797 619.771 296.411C611.328 300.101 607.482 307.292 609.004 314.106C610.474 320.715 615.682 324.432 625.18 324.967C636.293 325.583 647.082 323.506 657.621 320.031C664.99 317.6 672.362 315.084 682.19 314.616C669.709 329.579 657.117 341.561 642.929 351.936C614.022 373.084 580.883 380.572 545.915 381.335C486.957 382.626 434.44 363.64 386.943 329.498C351.587 304.089 322.545 272.337 295.237 238.813C292.801 235.821 289.926 232.883 289.544 227.687C294.983 225.401 299.785 226.869 304.536 227.035C341.439 228.308 377.696 225.328 411.269 208.281C450.503 188.369 481.235 159.501 492.907 116.148C511.367 47.5696 493.267 -13.245 444.858 -63.8561C407.94 -102.457 348.516 -110.028 300.739 -85.941C255.951 -63.3454 228.087 -25.3766 208.429 18.9119C192.147 55.5398 188.409 94.3822 195.398 134.058C195.819 136.432 197.088 139.349 193.637 140.939C189.829 140.925 187.165 138.447 184.343 136.456C141.045 105.938 107.409 66.8802 83.479 19.7775C65.4026 -15.7896 55.6617 -54.2744 47.0749 -93.0099C39.5682 -126.908 38.3754 -160.999 44.4252 -195.3C50.8413 -231.735 64.5409 -265.057 83.6333 -296.811C114.657 -348.412 154.727 -389.491 210.526 -413.883C212.947 -414.932 215.38 -416.048 217.546 -417.506C220.23 -419.3 222.153 -421.778 220.946 -425.294C219.928 -428.224 217.274 -428.844 214.588 -429.121C210.098 -429.595 205.806 -428.563 201.603 -427.247Z" fill="#5E6570"/>
</svg>
