<svg width="405" height="949" viewBox="0 0 405 949" fill="none" xmlns="http://www.w3.org/2000/svg">
<path d="M222.387 588.315C228.479 539.021 220.083 493.649 181.127 448.319C166.426 432.648 144.497 412.809 115.068 402.804C68.4543 386.959 25.4745 413.573 10.0878 451.853C-3.27543 485.108 -5.60904 519.866 5.7333 553.98C19.8328 596.424 53.0154 616.845 95.1538 624.447C119.944 628.916 144.251 624.761 168.113 617.781C183.754 613.204 198.966 607.509 213.653 600.369C218.946 597.795 221.66 594.174 222.387 588.315ZM127.665 0.78426C153.77 2.17906 179.415 6.4021 203.573 16.6063C263.769 41.9854 313.418 80.7649 350.872 134.618C374.601 168.714 389.925 206.314 397.71 247.106C404.783 284.145 405.421 321.631 403.416 358.943C397.891 461.759 354.74 546.684 277.907 614.683C271.002 620.794 265.897 626.944 264.606 636.431C263.616 643.771 261.222 650.992 258.932 658.099C243.266 706.731 219.349 751.215 189.626 792.489C147.541 850.934 93.5185 893.68 23.6406 914.524C-43.4268 934.526 -107.636 931.161 -167.193 890.636C-168.585 889.687 -170.02 888.423 -172.135 889.671C-174.264 893.726 -172.445 898.113 -172.505 902.394C-172.64 912.945 -172.051 923.541 -172.663 934.05C-173.166 942.472 -177.962 947.592 -184.057 948.26C-190.436 948.956 -195.285 945.306 -197.667 936.528C-205.862 906.381 -213.735 876.142 -221.68 845.924C-222.927 841.218 -223.357 836.404 -222.959 831.523C-221.778 817.024 -214.446 809.972 -199.808 810.371C-184.784 810.783 -169.924 809.338 -155.033 807.823C-142.773 806.572 -130.497 805.42 -118.211 804.728C-111.652 804.35 -104.935 804.346 -98.4837 805.397C-89.3904 806.883 -83.8852 812.899 -83.6743 819.878C-83.4641 826.646 -87.5903 831.536 -96.6609 834.403C-107.276 837.749 -118.243 838.406 -129.314 837.646C-137.055 837.114 -144.821 836.5 -154.46 838.478C-138.665 849.887 -123.5 858.382 -107.186 864.924C-73.9457 878.265 -39.9843 877.321 -5.91511 869.41C51.5301 856.076 97.7175 824.689 135.293 779.858C163.264 746.492 183.548 708.542 201.714 669.305C203.334 665.803 205.393 662.245 204.477 657.116C198.642 656.247 194.353 658.857 189.79 660.193C154.349 670.556 118.482 676.638 81.7351 668.426C38.7951 658.839 1.87658 638.471 -20.1576 599.353C-55.0091 537.473 -52.5153 474.07 -18.1319 413.057C8.08988 366.522 63.7932 344.487 116.045 356.006C165.03 366.819 201.421 396.715 231.424 434.764C256.261 466.225 269.492 502.936 272.535 543.107C272.715 545.512 272.207 548.652 275.943 549.339C279.63 548.383 281.598 545.323 283.84 542.695C318.242 502.415 341.171 456.251 352.704 404.692C361.42 365.759 361.338 326.06 360.075 286.405C358.963 251.703 351.685 218.377 337.338 186.638C322.108 152.923 300.59 124.025 274.236 97.9823C231.411 55.6593 182.424 25.7697 122.326 15.9402C119.721 15.5226 117.087 15.0434 114.627 14.1659C111.583 13.0922 109.108 11.1667 109.407 7.46146C109.669 4.37021 112.086 3.11319 114.621 2.18039C118.854 0.610112 123.267 0.548186 127.665 0.78426Z" fill="#ECECEC"/>
</svg>
