<svg width="160" height="22" viewBox="0 0 160 22" fill="none" xmlns="http://www.w3.org/2000/svg">
<path d="M0.4 11.116C0.4 16.884 4.264 21.28 10.536 21.28C16.052 21.28 19.692 18.256 20.28 13.356H15.8C15.352 15.96 13.28 17.36 10.592 17.36C7.148 17.36 4.88 15.204 4.88 11.116C4.88 7.056 7.148 4.9 10.592 4.9C13.28 4.9 15.352 6.272 15.8 8.876H20.28C19.692 4.004 16.052 0.979999 10.536 0.979999C4.264 0.979999 0.4 5.376 0.4 11.116ZM21.12 21H33.44V17.08H29.52V2.576C29.52 1.008 28.652 0.168 27.084 0.223999L21.68 0.42V4.34L25.04 4.172V17.08H21.12V21ZM34.5589 13.748C34.5589 17.752 37.0509 21.28 42.4829 21.28C47.3829 21.28 49.7069 18.06 49.9869 16.016H45.5069C45.2269 17.08 44.0509 17.64 42.4829 17.64C39.9349 17.64 38.7589 16.492 38.7589 14.868H49.4829V13.468C49.4829 9.184 46.4029 6.58 42.0069 6.58C37.6109 6.58 34.5589 9.268 34.5589 13.748ZM38.7589 12.348C38.7589 11.284 39.5149 10.22 42.0069 10.22C44.4989 10.22 45.2829 11.284 45.2829 12.348H38.7589ZM51.6553 17.136C51.6553 18.592 52.4113 21.28 56.8073 21.28C60.7553 21.28 62.1273 19.292 62.6593 16.94H63.7793L63.0793 18.62V18.9C63.0793 20.244 63.8353 21 65.1793 21H68.2873V17.08H66.2433V13.104C66.2433 8.456 62.8273 6.58 58.9353 6.58C54.9873 6.58 51.9353 8.68 51.9353 12.264H56.1353C56.1353 10.976 57.1433 10.22 58.9353 10.22C60.8673 10.22 61.7633 10.92 61.7633 12.068L57.3113 12.684C53.1113 13.272 51.6553 14.7 51.6553 17.136ZM56.1353 16.296C56.1353 15.484 56.8073 15.288 58.1513 15.092L61.7633 14.588C61.7633 16.324 60.1393 17.36 57.6753 17.36C56.9193 17.36 56.1353 17.108 56.1353 16.296ZM70.2414 21H74.7214V10.612L81.9174 10.78V6.86L72.6494 6.636C71.1094 6.608 70.2414 7.448 70.2414 8.988V21ZM83.0459 1.26L88.7299 21H97.9699L103.682 1.26H99.1459L93.9099 19.88H92.7899L87.5819 1.26H83.0459ZM109.205 5.46C110.857 5.46 111.893 4.676 111.893 3.22C111.893 1.792 110.857 0.979999 109.205 0.979999C107.553 0.979999 106.573 1.792 106.573 3.22C106.573 4.676 107.553 5.46 109.205 5.46ZM103.409 21H115.729V17.08H111.725V8.932C111.725 7.364 110.857 6.496 109.289 6.58L103.969 6.86V10.78L107.413 10.612V17.08H103.409V21ZM116.842 13.748C116.842 17.752 119.334 21.28 124.766 21.28C129.666 21.28 131.99 18.06 132.27 16.016H127.79C127.51 17.08 126.334 17.64 124.766 17.64C122.218 17.64 121.042 16.492 121.042 14.868H131.766V13.468C131.766 9.184 128.686 6.58 124.29 6.58C119.894 6.58 116.842 9.268 116.842 13.748ZM121.042 12.348C121.042 11.284 121.798 10.22 124.29 10.22C126.782 10.22 127.566 11.284 127.566 12.348H121.042ZM133.098 6.86L135.086 21H144.438L145.53 7.98H146.65L147.742 21H157.094L159.082 6.86H154.826L152.978 19.88H151.858L150.766 6.86H141.414L140.322 19.88H139.202L137.382 6.86H133.098Z" fill="#F3F3F3"/>
</svg>
