<svg width="458" height="695" viewBox="0 0 458 695" fill="none" xmlns="http://www.w3.org/2000/svg">
<path d="M255.171 427.069C237.074 380.815 233.985 334.776 260.516 281.218C270.883 262.397 287.222 237.75 313.262 220.775C354.507 193.892 402.735 209.046 427.113 242.33C448.288 271.246 459.147 304.345 456.597 340.205C453.435 384.818 426.336 412.813 387.388 430.603C364.474 441.066 339.895 443.054 315.047 442.193C298.761 441.628 282.612 439.873 266.616 436.588C260.85 435.404 257.325 432.567 255.171 427.069ZM201.603 -165.632C176.655 -157.823 152.851 -147.387 131.969 -131.523C79.9228 -92.0417 41.4102 -42.1852 18.4429 19.2591C3.88622 58.166 -1.65998 98.3883 0.88808 139.838C3.19787 177.476 11.8527 213.955 23.0264 249.611C53.8136 347.864 116.633 419.474 207.9 466.353C216.102 470.566 222.569 475.261 226.167 484.134C228.942 491.001 233.048 497.405 237.026 503.725C264.235 546.97 298.413 584.155 337.423 616.793C392.658 663.01 455.576 691.064 528.438 693.972C598.369 696.762 659.75 677.617 707.431 623.619C708.545 622.355 709.623 620.775 711.981 621.461C715.047 624.863 714.37 629.563 715.487 633.697C718.227 643.887 720.278 654.299 723.471 664.33C726.042 672.366 731.955 676.14 738.025 675.279C744.379 674.376 748.175 669.64 748.311 660.545C748.793 629.308 748.941 598.061 749.164 566.817C749.207 561.949 748.433 557.178 746.84 552.547C742.109 538.791 733.26 533.772 719.176 537.78C704.721 541.895 689.965 544.171 675.162 546.388C662.974 548.208 650.794 550.129 638.719 552.498C632.271 553.754 625.762 555.411 619.771 558.026C611.328 561.716 607.482 568.906 609.004 575.721C610.474 582.33 615.682 586.047 625.18 586.582C636.293 587.198 647.082 585.121 657.621 581.646C664.99 579.215 672.361 576.699 682.19 576.231C669.709 591.193 657.117 603.176 642.929 613.551C614.021 634.699 580.882 642.187 545.915 642.95C486.957 644.24 434.44 625.255 386.943 591.113C351.586 565.704 322.545 533.952 295.237 500.428C292.801 497.435 289.926 494.497 289.544 489.302C294.983 487.016 299.785 488.484 304.536 488.65C341.439 489.923 377.696 486.943 411.269 469.896C450.503 449.984 481.235 421.116 492.907 377.763C511.367 309.184 493.266 248.37 444.858 197.759C407.939 159.157 348.516 151.587 300.739 175.674C255.951 198.269 228.087 236.238 208.429 280.527C192.147 317.155 188.409 355.997 195.398 395.672C195.819 398.047 197.088 400.964 193.637 402.554C189.828 402.54 187.165 400.062 184.343 398.07C141.045 367.553 107.409 328.495 83.4789 281.392C65.4024 245.825 55.6616 207.34 47.0748 168.605C39.5681 134.707 38.3753 100.616 44.425 66.315C50.8412 29.8801 64.5408 -3.44259 83.6331 -35.1958C114.657 -86.7975 154.727 -127.877 210.526 -152.268C212.946 -153.317 215.38 -154.433 217.546 -155.892C220.23 -157.685 222.152 -160.163 220.945 -163.679C219.927 -166.609 217.274 -167.229 214.588 -167.506C210.098 -167.98 205.806 -166.949 201.603 -165.632Z" fill="#5E6570"/>
</svg>
