<svg width="35" height="32" viewBox="0 0 35 32" fill="none" xmlns="http://www.w3.org/2000/svg">
<path d="M30.5159 0H1.81456C0.843118 0 0.0483398 0.761887 0.0483398 1.69313V4.74073C0.0483398 5.67197 0.843118 6.43386 1.81456 6.43386H30.4276C31.399 6.43386 32.1938 5.67197 32.1938 4.74073V1.69313C32.2821 0.761887 31.4873 0 30.5159 0ZM30.5159 17.0159H1.81456C0.843118 17.0159 0.0483398 17.7778 0.0483398 18.709V21.7566C0.0483398 22.6878 0.843118 23.4497 1.81456 23.4497H30.4276C31.399 23.4497 32.1938 22.6878 32.1938 21.7566V18.709C32.2821 17.7778 31.4873 17.0159 30.5159 17.0159ZM17.9756 25.5661H1.81456C0.843118 25.5661 0.0483398 26.328 0.0483398 27.2593V30.3069C0.0483398 31.2381 0.843118 32 1.81456 32H17.9756C18.9471 32 19.7418 31.2381 19.7418 30.3069V27.2593C19.7418 26.328 18.9471 25.5661 17.9756 25.5661ZM32.2821 8.55027H1.81456C0.843118 8.55027 0.0483398 9.31216 0.0483398 10.2433V13.291C0.0483398 14.2222 0.843118 14.9841 1.81456 14.9841H32.2821C33.2536 14.9841 34.0483 14.2222 34.0483 13.291V10.2433C34.0483 9.31216 33.2536 8.55027 32.2821 8.55027Z" fill="#C5C5C5"/>
</svg>
