<svg width="107" height="26" viewBox="0 0 107 26" fill="none" xmlns="http://www.w3.org/2000/svg">
<path d="M67.4635 7.80473V24.9174H62.4605V22.4182C61.9497 23.2866 61.2084 23.9991 60.3173 24.478C59.3951 24.9593 58.3659 25.2031 57.324 25.1872C55.1689 25.1872 53.5582 24.5905 52.492 23.3972C51.4259 22.2039 50.8939 20.4037 50.8962 17.9967V7.80473H56.0275V18.0985C56.0275 20.1684 56.9232 21.2034 58.7146 21.2034C59.7796 21.2034 60.6417 20.8437 61.3008 20.1243C61.9599 19.4049 62.2889 18.4599 62.2877 17.2892V7.80473H67.4635ZM87.0822 0V24.9174H82.0125V22.386C81.4872 23.2658 80.7208 23.9795 79.8026 24.4441C78.8026 24.9506 77.6925 25.2058 76.5699 25.1872C75.1684 25.2101 73.7922 24.816 72.6188 24.0555C71.435 23.2706 70.4979 22.1711 69.9146 20.8827C69.268 19.5254 68.9447 17.9673 68.9447 16.2084C68.9447 14.4495 69.268 12.9027 69.9146 11.568C70.497 10.3022 71.4286 9.22581 72.6017 8.46304C73.7874 7.72118 75.1665 7.34069 76.5682 7.36868C77.6664 7.35528 78.7517 7.60436 79.7325 8.09486C80.646 8.54331 81.4127 9.23922 81.9441 10.102V0H87.0822ZM80.9999 20.0055C81.6841 19.1402 82.0262 17.896 82.0262 16.2729C82.0262 14.6746 81.6801 13.4428 80.9879 12.5775C80.2958 11.7122 79.3265 11.279 78.0802 11.2778C76.8088 11.2778 75.8218 11.7054 75.1194 12.5605C74.417 13.4156 74.0658 14.6305 74.0658 16.205C74.0658 17.8247 74.417 19.0792 75.1194 19.9682C75.8218 20.8573 76.8088 21.3018 78.0802 21.3018C79.3425 21.3041 80.3157 20.872 80.9999 20.0055ZM106.701 7.80473V24.9174H101.629V22.386C101.104 23.2663 100.337 23.9802 99.4179 24.4441C98.4181 24.9492 97.3087 25.2032 96.1869 25.1838C94.7864 25.2214 93.4062 24.8451 92.2218 24.1029C91.0374 23.3606 90.1022 22.2858 89.535 21.0151C88.8884 19.677 88.5652 18.1301 88.5652 16.3746C88.5652 14.6192 88.8884 13.0548 89.535 11.6816C90.115 10.3871 91.0526 9.28184 92.2392 8.49358C93.4124 7.73619 94.7873 7.34442 96.1869 7.36868C97.313 7.35075 98.4251 7.61822 99.4179 8.14576C100.334 8.62889 101.099 9.35257 101.629 10.2378V7.80473H106.701ZM100.61 20.0208C101.294 19.1657 101.636 17.9282 101.636 16.3085C101.636 14.6887 101.294 13.4445 100.61 12.5758C99.9259 11.7082 98.9504 11.275 97.6835 11.2761C96.4166 11.2773 95.4297 11.728 94.7227 12.6284C94.0203 13.5333 93.6685 14.7826 93.6674 16.3763C93.6663 17.9701 94.0123 19.1906 94.7056 20.0378C95.3978 20.8805 96.3904 21.3024 97.6835 21.3035C98.9526 21.3046 99.9282 20.8776 100.61 20.0225V20.0208ZM49.8511 25.1584H43.4763L36.6175 17.3994V25.1584H31.4143V0H36.6175V15.2786L43.165 7.86241H49.403L41.9934 16.1761L49.8511 25.1584ZM17.1595 25.1668L7.17402 13.7652L12.6269 25.1668H8.84683L3.28449 13.5429L5.597 25.1668H3.27422L0.960003 13.5259V25.1668H0.0483398V0H0.960003V12.5554L3.30672 0H5.62265L3.26567 12.6097L8.93577 0H12.6748L7.02692 12.5639L17.2827 0H23.1427L12.5345 12.9983L23.1923 25.1668H17.1595Z" fill="#C5C5C5"/>
</svg>
