<svg width="20" height="21" viewBox="0 0 20 21" fill="none" xmlns="http://www.w3.org/2000/svg">
<path d="M13.3333 6.71436C14.6593 6.71436 15.9311 7.24114 16.8688 8.17882C17.8065 9.1165 18.3333 10.3883 18.3333 11.7144V17.5477H14.9999V11.7144C14.9999 11.2723 14.8243 10.8484 14.5118 10.5358C14.1992 10.2233 13.7753 10.0477 13.3333 10.0477C12.8912 10.0477 12.4673 10.2233 12.1547 10.5358C11.8422 10.8484 11.6666 11.2723 11.6666 11.7144V17.5477H8.33325V11.7144C8.33325 10.3883 8.86004 9.1165 9.79772 8.17882C10.7354 7.24114 12.0072 6.71436 13.3333 6.71436V6.71436Z" stroke="white" stroke-width="2" stroke-linecap="round" stroke-linejoin="round"/>
<path d="M5.00008 7.54761H1.66675V17.5476H5.00008V7.54761Z" stroke="white" stroke-width="2" stroke-linecap="round" stroke-linejoin="round"/>
<path d="M3.33341 5.04769C4.25389 5.04769 5.00008 4.3015 5.00008 3.38102C5.00008 2.46055 4.25389 1.71436 3.33341 1.71436C2.41294 1.71436 1.66675 2.46055 1.66675 3.38102C1.66675 4.3015 2.41294 5.04769 3.33341 5.04769Z" stroke="white" stroke-width="2" stroke-linecap="round" stroke-linejoin="round"/>
</svg>
