<svg width="147" height="25" viewBox="0 0 147 25" fill="none" xmlns="http://www.w3.org/2000/svg">
<path d="M8.73535 18.16C8.70235 17.844 8.66935 17.546 8.63035 17.186C9.01335 17.163 9.29035 17.129 9.56535 17.129C11.2473 17.124 12.9273 17.093 14.6093 17.134C18.2233 17.224 21.2253 15.068 22.4023 12.2C24.0954 8.08104 21.8063 3.74304 17.8123 2.27804C16.7194 1.87316 15.5629 1.66659 14.3973 1.66804C10.4633 1.67104 6.53135 1.66804 2.59735 1.66804C2.37435 1.66804 2.15435 1.65804 1.92935 1.67604C1.31735 1.72304 1.23735 1.80504 1.20735 2.38604C1.19935 2.56404 1.20735 2.74104 1.20735 2.92004V24.134H0.22035C0.0223498 23.407 -0.0196503 1.83404 0.17335 0.800038C0.47935 0.764038 0.81635 0.692038 1.14935 0.692038C5.71635 0.685038 10.2833 0.726038 14.8523 0.677038C19.0173 0.633038 22.6493 3.36204 23.7003 6.91804C24.7363 10.428 23.8603 13.591 20.9503 16.128C19.5564 17.348 17.8063 18.004 15.9533 18.122C13.5983 18.277 11.2133 18.161 8.73535 18.161V18.16Z" fill="#C5C5C5"/>
<path d="M2.38831 24.1301V2.76305C2.71331 2.73705 2.98731 2.69805 3.26231 2.69805C7.19631 2.69305 11.1263 2.69005 15.0603 2.69805C17.8173 2.70305 20.5103 4.67705 21.4413 7.00005C21.9317 8.22095 22.0282 9.56461 21.7173 10.8431C21.1673 13.1741 19.7213 14.9361 17.1993 15.7281C16.6113 15.9141 15.9793 16.0481 15.3603 16.0611C13.3613 16.1011 11.3633 16.0811 9.36731 16.0761C9.05931 16.0761 8.69931 16.1281 8.62731 15.7061C8.57031 15.3571 8.79031 15.0781 9.19731 15.0421C9.54031 15.0111 9.89431 15.0291 10.2413 15.0291C11.8253 15.0271 13.4143 14.9951 14.9983 15.0341C17.4483 15.0941 19.5933 13.4861 20.2883 11.5661C21.5083 8.18705 20.1563 5.76005 17.2973 4.24105C16.7503 3.95105 16.0463 3.80105 15.4113 3.79305C11.6063 3.74905 7.80131 3.76705 3.99331 3.76505C3.86931 3.76505 3.74531 3.79305 3.50931 3.82405C3.48431 4.19005 3.43731 4.56205 3.43731 4.93005C3.43231 10.8961 3.43431 16.8601 3.43431 22.8251C3.43431 23.0341 3.44331 23.2401 3.43231 23.4501C3.40031 24.1391 3.32831 24.1881 2.38831 24.1281V24.1301Z" fill="#C5C5C5"/>
<path d="M5.57229 24.1298H4.51929V4.88584C4.87229 4.85184 5.20629 4.79084 5.54229 4.79084C8.61829 4.78284 11.6983 4.85784 14.7723 4.76484C17.3453 4.68784 19.4823 6.69184 19.7553 8.89084C19.9953 10.8158 18.9153 13.2008 16.4123 13.8128C15.7428 13.9815 15.0573 14.0787 14.3673 14.1028C12.8463 14.1478 11.3203 14.1168 9.79929 14.1168H8.88929C8.46029 13.2188 8.56229 13.0468 9.47729 13.0408C11.1903 13.0338 12.9033 12.9968 14.6163 13.0488C16.5043 13.1058 18.0003 11.9918 18.4613 10.5398C18.9163 9.10684 18.5033 7.64584 17.0533 6.52384C16.3913 6.00984 15.6153 5.78584 14.7743 5.78084C12.0143 5.76784 9.25629 5.77284 6.49629 5.78084C6.22129 5.78084 5.94629 5.84284 5.57629 5.88684C5.57229 11.9938 5.57229 18.0368 5.57229 24.1318V24.1298Z" fill="#C5C5C5"/>
<path d="M8.69934 11.861C8.65834 11.039 8.71334 10.946 9.43634 10.941C11.1183 10.925 12.7983 10.938 14.4803 10.933C14.7973 10.933 15.1203 10.935 15.4263 10.876C15.8893 10.786 16.2313 10.536 16.2893 10.058C16.3253 9.76502 16.3583 9.46502 16.3413 9.17102C16.2863 8.24202 15.8713 7.87702 14.8233 7.86402C13.2063 7.84802 11.5873 7.85902 9.97034 7.85902H7.90034C7.87234 8.31202 7.82834 8.68702 7.82834 9.06002C7.82234 13.662 7.82534 18.263 7.82534 22.862C7.82534 23.071 7.83634 23.277 7.82234 23.487C7.77834 24.14 7.66834 24.207 6.77234 24.098V6.84402C7.07534 6.82002 7.32234 6.78702 7.56634 6.78702C9.94534 6.78402 12.3233 6.79702 14.7033 6.78202C15.8553 6.77402 16.6773 7.22202 17.2443 8.15602C17.9393 9.30402 17.4323 11.194 16.2223 11.819C16.0262 11.9149 15.8106 11.9642 15.5923 11.963C13.3743 11.971 11.1553 11.966 8.93334 11.961C8.87534 11.959 8.81834 11.916 8.69934 11.861ZM106.702 5.89002L106.076 6.35602C105.891 6.21402 105.712 6.09802 105.564 5.95902C104.88 5.31902 104.252 4.62302 103.518 4.03902C102.146 2.94402 100.53 2.30602 98.7753 1.88902C96.8653 1.43602 94.9883 1.51002 93.1473 2.00702C90.1283 2.82502 87.7003 4.44402 86.1273 7.04002C84.9693 8.94602 84.2553 11.009 84.4863 13.22C84.9433 17.588 87.2003 20.824 91.5513 22.697C93.8313 23.677 96.2123 23.863 98.6083 23.415C101.188 22.933 103.385 21.707 105.119 19.819C105.284 19.641 105.414 19.435 105.579 19.259C105.884 18.939 106.202 18.905 106.483 19.16C106.775 19.428 106.637 19.627 106.417 19.909C105.081 21.616 103.31 22.787 101.287 23.664C99.0303 24.644 96.6293 24.861 94.2333 24.508C91.7473 24.14 89.4933 23.134 87.6233 21.503C85.9318 20.0518 84.674 18.1617 83.9883 16.041C83.3263 14.027 83.2323 11.976 83.7453 9.99302C84.6723 6.40502 86.8713 3.64602 90.4573 1.93002C93.1363 0.651019 95.9673 0.32002 98.8593 0.87002C102.073 1.48202 104.685 3.08802 106.618 5.60602C106.647 5.65502 106.65 5.72202 106.702 5.88902V5.89002Z" fill="#C5C5C5"/>
<path d="M105.014 18.406C102.296 22.116 97.4863 23.588 92.9693 22.25C88.4493 20.909 85.4993 17.181 85.4933 12.635C85.4903 8.09099 88.3743 4.46699 92.6273 3.12899C97.3493 1.64099 102.212 3.00199 105.075 6.93099C104.879 7.09299 104.681 7.26299 104.437 7.46499C104.258 7.33899 104.052 7.24599 103.923 7.09699C103.272 6.33299 102.542 5.65599 101.665 5.12099C100.527 4.42699 99.3583 3.83399 97.9613 3.73099C97.3073 3.68299 96.6493 3.43799 96.0123 3.49099C92.2783 3.81099 89.3283 5.31099 87.5913 8.56799C86.8743 9.91099 86.4253 11.32 86.5183 12.815C86.7173 15.998 88.1623 18.526 91.0553 20.32C93.3403 21.736 95.8703 21.907 98.4023 21.496C100.458 21.164 102.223 20.081 103.581 18.527C103.642 18.457 103.705 18.393 103.766 18.324C104.325 17.706 104.404 17.711 105.014 18.406Z" fill="#C5C5C5"/>
<path d="M103.337 8.10996C103.029 8.25396 102.779 8.36696 102.51 8.49296C101.556 7.30196 100.379 6.39096 98.8744 5.91896C95.8504 4.97196 93.1174 5.46796 90.8344 7.56896C87.0614 11.043 88.1644 17.066 93.1034 19.165C94.5796 19.7973 96.2127 19.9678 97.7877 19.6538C99.3626 19.3398 100.806 18.5561 101.926 17.406C101.989 17.342 102.02 17.251 102.08 17.187C102.606 16.632 102.734 16.637 103.287 17.228C101.81 19.826 97.8824 21.241 95.0454 20.764C90.1434 19.938 87.5834 16.261 87.5424 12.696C87.4954 8.64896 90.5964 5.30696 94.5234 4.59996C98.1334 3.95196 101.684 5.38196 103.337 8.10996Z" fill="#C5C5C5"/>
<path d="M100.91 15.651C101.696 16.181 101.715 16.258 101.215 16.773C97.6023 20.5 91.5653 18.944 89.9653 14.694C88.8863 11.834 90.2313 8.24704 93.5533 6.90404C96.1763 5.84404 99.2253 6.38004 101.171 8.48404C101.74 9.09504 101.737 9.11604 100.855 9.56404C99.3863 7.80404 97.4013 7.15804 95.0553 7.51104C93.7853 7.70104 92.7933 8.36504 91.9353 9.26504C90.2123 11.074 90.1653 14.452 92.2553 16.337C93.5153 17.472 95.0153 18.03 96.7783 17.867C98.4883 17.707 99.7913 16.857 100.91 15.651ZM112.677 0.406038H113.603C113.843 1.09604 113.878 23.647 113.642 24.56H112.674C112.677 16.508 112.677 8.48704 112.677 0.406038ZM109.24 24.564C108.967 24.577 108.666 24.59 108.294 24.605V0.402038H109.231C109.468 1.09804 109.485 23.679 109.24 24.564ZM111.445 0.454038V24.49C110.56 24.634 110.494 24.595 110.441 23.893C110.422 23.656 110.433 23.419 110.433 23.181V1.73804C110.433 1.50104 110.422 1.26404 110.444 1.02604C110.502 0.410038 110.59 0.359038 111.445 0.454038ZM115.745 24.559C114.946 24.574 114.888 24.544 114.827 23.976C114.8 23.713 114.811 23.441 114.811 23.176V1.74804C114.811 1.48304 114.797 1.21104 114.83 0.948038C114.899 0.404038 115.001 0.358038 115.726 0.451038C115.911 1.12104 115.938 23.602 115.745 24.559ZM117.408 24.461C118.177 22.674 118.923 20.961 119.646 19.239C120.228 17.849 120.768 16.442 121.344 15.053C121.924 13.655 122.529 12.27 123.114 10.875C123.732 9.40004 124.335 7.91904 124.951 6.44504C125.737 4.56104 126.521 2.67804 127.315 0.800038C127.593 0.140038 128.192 0.386038 128.814 0.347038C132.224 8.37404 135.543 16.421 138.971 24.56H137.731L128.298 2.04604C128.056 2.36804 127.841 2.56704 127.738 2.80604C126.558 5.58504 125.387 8.36204 124.232 11.15C123.108 13.861 122.013 16.581 120.891 19.295C120.249 20.851 119.582 22.395 118.923 23.945C118.615 24.662 118.485 24.711 117.408 24.462V24.461ZM134.868 0.525038C135.731 0.118038 136.092 0.411038 136.354 1.02704C137.409 3.50704 138.465 5.99004 139.502 8.47704C140.618 11.161 141.698 13.852 142.817 16.535C143.807 18.902 144.83 21.258 145.828 23.623C145.941 23.888 145.976 24.183 146.048 24.456C145.083 24.714 145.014 24.673 144.717 23.969C143.702 21.571 142.663 19.179 141.657 16.779C140.937 15.061 140.271 13.326 139.551 11.608C138.694 9.56004 137.792 7.52504 136.933 5.47704C136.334 4.05904 135.775 2.62404 135.193 1.20104C135.104 0.986037 134.994 0.782038 134.868 0.525038ZM141.21 24.577H140.126L130.049 0.508038C131.127 0.168038 131.204 0.348038 131.562 1.12304C132.15 2.39304 132.653 3.69704 133.197 4.98604C133.84 6.51104 134.495 8.02704 135.13 9.55304C135.825 11.223 136.494 12.898 137.192 14.567C138.198 16.968 139.223 19.36 140.238 21.758C140.535 22.465 140.834 23.174 141.109 23.888C141.179 24.071 141.168 24.285 141.21 24.578V24.577ZM143.637 24.553H142.54C139.173 16.519 135.827 8.53304 132.484 0.548038C133.416 0.226038 133.636 0.280038 133.95 0.994038C134.387 1.99404 134.785 3.01104 135.198 4.01904C135.907 5.74504 136.606 7.47204 137.329 9.19304C137.914 10.583 138.539 11.956 139.118 13.345C139.847 15.087 140.535 16.842 141.268 18.583C141.994 20.307 142.754 22.013 143.482 23.737C143.581 23.972 143.581 24.24 143.637 24.553Z" fill="#C5C5C5"/>
<path d="M128.213 4.44611C128.905 5.06011 129.043 5.58611 128.676 6.34111C128.011 7.70511 127.485 9.13011 126.897 10.5271C126.153 12.2941 125.404 14.0601 124.665 15.8301C123.818 17.8541 122.98 19.8821 122.143 21.9091C121.848 22.6191 121.569 23.3351 121.274 24.0441C121.018 24.6611 120.815 24.7181 119.841 24.4491C122.623 17.8001 125.405 11.1591 128.213 4.44611ZM122.273 24.4111L129.396 7.37811C130.05 7.85211 130.265 8.35811 130.011 8.96511C129.192 10.9351 128.351 12.8951 127.523 14.8611C126.921 16.2791 126.318 17.6961 125.725 19.1161C125.033 20.7781 124.366 22.4481 123.669 24.1101C123.433 24.6701 123.185 24.7191 122.273 24.4111ZM124.683 24.4191L130.589 10.2691C131.254 10.8241 131.424 11.3471 131.149 11.9891C129.887 14.9591 128.614 17.9191 127.35 20.8891C126.924 21.8967 126.508 22.9084 126.102 23.9241C125.799 24.6801 125.664 24.7421 124.683 24.4191ZM135.817 21.5801H127.854C128.143 20.6091 128.176 20.5751 129.106 20.5731C130.912 20.5671 132.719 20.5671 134.525 20.5731C135.399 20.5781 135.399 20.5901 135.817 21.5811V21.5801ZM134.734 19.5491C134.505 19.5771 134.26 19.6291 134.016 19.6311C132.564 19.6414 131.112 19.6414 129.659 19.6311C128.757 19.6241 128.718 19.5571 129.013 18.6111C129.291 18.5921 129.601 18.5531 129.906 18.5531C131.262 18.5481 132.621 18.5351 133.978 18.5611C134.767 18.5771 134.841 18.7011 134.734 19.5491ZM133.971 17.4531H129.745C129.64 16.5171 129.709 16.4301 130.611 16.4171C131.433 16.4043 132.254 16.4043 133.075 16.4171C133.782 16.4291 133.976 16.6571 133.971 17.4531ZM39.0183 23.4141V6.55211C39.0183 6.10411 38.6313 5.73711 38.1483 5.73711H33.4013C32.9223 5.73711 32.5313 5.37311 32.5313 4.92111V1.59511C32.5313 1.14611 32.9183 0.779105 33.4013 0.779105H50.3543C50.8333 0.779105 51.2253 1.14311 51.2253 1.59511V4.92011C51.2253 5.36911 50.8373 5.73611 50.3543 5.73611H45.6083C45.1293 5.73611 44.7373 6.09911 44.7373 6.55111V23.4141C44.7373 23.8621 44.3483 24.2291 43.8653 24.2291H39.8903C39.4103 24.2281 39.0193 23.8621 39.0193 23.4131L39.0183 23.4141ZM71.6653 24.2301H67.3983C67.2364 24.2321 67.077 24.1894 66.9378 24.1066C66.7986 24.0239 66.6849 23.9043 66.6093 23.7611L63.0923 16.7481C62.6223 15.8841 61.8723 15.4511 60.8493 15.4511H59.9973C59.5173 15.4511 59.1253 15.8151 59.1253 16.2671V23.4171C59.1253 23.8641 58.7373 24.2311 58.2553 24.2311H54.4303C53.9513 24.2311 53.5593 23.8681 53.5593 23.4161V1.59811C53.5593 1.15011 53.9473 0.783105 54.4303 0.783105H63.8903C66.5143 0.783105 68.4883 1.40011 69.8083 2.63011C71.1313 3.86011 71.7903 5.64011 71.7903 7.96811C71.7903 9.7431 71.3393 11.2441 70.4373 12.4741C69.8645 13.2581 69.1158 13.8969 68.2513 14.3391C67.7283 14.6091 67.6443 15.2991 68.1063 15.6561C68.6883 16.1071 69.1893 16.7501 69.6073 17.5781L72.4473 23.0581C72.7293 23.6021 72.3113 24.2301 71.6653 24.2301ZM65.6923 10.2271C66.2353 9.80711 66.5093 9.11911 66.5093 8.16711C66.5093 7.19211 66.2363 6.48711 65.6923 6.05511C65.1493 5.62211 64.2523 5.40711 63.0023 5.40711H59.9383C59.4593 5.40711 59.0683 5.77011 59.0683 6.22211V10.0471C59.0683 10.4951 59.4553 10.8621 59.9383 10.8621H63.0043C64.2513 10.8601 65.1503 10.6521 65.6943 10.2271H65.6923ZM75.3043 23.4151V1.59811C75.3043 1.15011 75.6923 0.783105 76.1763 0.783105H80.0933C80.5733 0.783105 80.9643 1.14611 80.9643 1.59811V23.4151C80.9643 23.8631 80.5763 24.2301 80.0943 24.2301H76.1763C75.6943 24.2301 75.3043 23.8641 75.3043 23.4151ZM26.5023 0.608105H23.1863C23.0165 0.605086 22.8494 0.651867 22.7058 0.742674C22.5623 0.833481 22.4484 0.964341 22.3783 1.11911L22.1503 1.64911C22.0879 1.79186 22.0705 1.95024 22.1003 2.10315C22.1301 2.25607 22.2058 2.39627 22.3173 2.50511C23.7043 3.86111 24.6823 5.58511 25.0753 7.50111C25.0833 7.53911 25.0943 7.58111 25.1103 7.61911L27.4473 13.5131C27.6593 14.0451 27.2383 14.6111 26.6313 14.6111H24.1483C24.009 14.6088 23.8711 14.639 23.7456 14.6994C23.6201 14.7599 23.5104 14.8488 23.4253 14.9591C21.5093 17.5931 18.2823 19.3251 14.6273 19.3251H14.5173L12.9593 22.9331C12.7283 23.4701 13.1493 24.0531 13.7673 24.0531H17.5603C17.9243 24.0531 18.2503 23.8411 18.3773 23.5231L19.8893 19.7261C19.9569 19.5662 20.0708 19.4302 20.2165 19.3357C20.3621 19.2413 20.5328 19.1926 20.7063 19.1961H29.0913C29.4543 19.1961 29.7813 19.4081 29.9073 19.7261L31.4203 23.5231C31.5473 23.8431 31.8713 24.0531 32.2363 24.0531H35.9353C36.5533 24.0531 36.9743 23.4661 36.7433 22.9331L27.3003 1.11511C27.2321 0.961326 27.12 0.831144 26.978 0.740933C26.836 0.650721 26.6705 0.604508 26.5023 0.608105Z" fill="#C5C5C5"/>
<path d="M8.73535 18.16C8.70235 17.844 8.66935 17.546 8.63035 17.186C9.01335 17.163 9.29035 17.129 9.56535 17.129C11.2473 17.124 12.9273 17.093 14.6093 17.134C18.2233 17.224 21.2253 15.068 22.4023 12.2C24.0954 8.08104 21.8063 3.74304 17.8123 2.27804C16.7194 1.87316 15.5629 1.66659 14.3973 1.66804C10.4633 1.67104 6.53135 1.66804 2.59735 1.66804C2.37435 1.66804 2.15435 1.65804 1.92935 1.67604C1.31735 1.72304 1.23735 1.80504 1.20735 2.38604C1.19935 2.56404 1.20735 2.74104 1.20735 2.92004V24.134H0.22035C0.0223498 23.407 -0.0196503 1.83404 0.17335 0.800038C0.47935 0.764038 0.81635 0.692038 1.14935 0.692038C5.71635 0.685038 10.2833 0.726038 14.8523 0.677038C19.0173 0.633038 22.6493 3.36204 23.7003 6.91804C24.7363 10.428 23.8603 13.591 20.9503 16.128C19.5564 17.348 17.8063 18.004 15.9533 18.122C13.5983 18.277 11.2133 18.161 8.73535 18.161V18.16Z" fill="#C5C5C5"/>
<path d="M2.38831 24.1301V2.76305C2.71331 2.73705 2.98731 2.69805 3.26231 2.69805C7.19631 2.69305 11.1263 2.69005 15.0603 2.69805C17.8173 2.70305 20.5103 4.67705 21.4413 7.00005C21.9317 8.22095 22.0282 9.56461 21.7173 10.8431C21.1673 13.1741 19.7213 14.9361 17.1993 15.7281C16.6113 15.9141 15.9793 16.0481 15.3603 16.0611C13.3613 16.1011 11.3633 16.0811 9.36731 16.0761C9.05931 16.0761 8.69931 16.1281 8.62731 15.7061C8.57031 15.3571 8.79031 15.0781 9.19731 15.0421C9.54031 15.0111 9.89431 15.0291 10.2413 15.0291C11.8253 15.0271 13.4143 14.9951 14.9983 15.0341C17.4483 15.0941 19.5933 13.4861 20.2883 11.5661C21.5083 8.18705 20.1563 5.76005 17.2973 4.24105C16.7503 3.95105 16.0463 3.80105 15.4113 3.79305C11.6063 3.74905 7.80131 3.76705 3.99331 3.76505C3.86931 3.76505 3.74531 3.79305 3.50931 3.82405C3.48431 4.19005 3.43731 4.56205 3.43731 4.93005C3.43231 10.8961 3.43431 16.8601 3.43431 22.8251C3.43431 23.0341 3.44331 23.2401 3.43231 23.4501C3.40031 24.1391 3.32831 24.1881 2.38831 24.1281V24.1301Z" fill="#C5C5C5"/>
<path d="M5.57229 24.1298H4.51929V4.88584C4.87229 4.85184 5.20629 4.79084 5.54229 4.79084C8.61829 4.78284 11.6983 4.85784 14.7723 4.76484C17.3453 4.68784 19.4823 6.69184 19.7553 8.89084C19.9953 10.8158 18.9153 13.2008 16.4123 13.8128C15.7428 13.9815 15.0573 14.0787 14.3673 14.1028C12.8463 14.1478 11.3203 14.1168 9.79929 14.1168H8.88929C8.46029 13.2188 8.56229 13.0468 9.47729 13.0408C11.1903 13.0338 12.9033 12.9968 14.6163 13.0488C16.5043 13.1058 18.0003 11.9918 18.4613 10.5398C18.9163 9.10684 18.5033 7.64584 17.0533 6.52384C16.3913 6.00984 15.6153 5.78584 14.7743 5.78084C12.0143 5.76784 9.25629 5.77284 6.49629 5.78084C6.22129 5.78084 5.94629 5.84284 5.57629 5.88684C5.57229 11.9938 5.57229 18.0368 5.57229 24.1318V24.1298Z" fill="#C5C5C5"/>
<path d="M8.69934 11.8608C8.65834 11.0388 8.71334 10.9458 9.43634 10.9408C11.1183 10.9248 12.7983 10.9378 14.4803 10.9328C14.7973 10.9328 15.1203 10.9348 15.4263 10.8758C15.8893 10.7858 16.2313 10.5358 16.2893 10.0578C16.3253 9.76484 16.3583 9.46484 16.3413 9.17084C16.2863 8.24184 15.8713 7.87684 14.8233 7.86384C13.2063 7.84784 11.5873 7.85884 9.97034 7.85884H7.90034C7.87234 8.31184 7.82834 8.68684 7.82834 9.05984C7.82234 13.6618 7.82534 18.2628 7.82534 22.8618C7.82534 23.0708 7.83634 23.2768 7.82234 23.4868C7.77834 24.1398 7.66834 24.2068 6.77234 24.0978V6.84384C7.07534 6.81984 7.32234 6.78684 7.56634 6.78684C9.94534 6.78384 12.3233 6.79684 14.7033 6.78184C15.8553 6.77384 16.6773 7.22184 17.2443 8.15584C17.9393 9.30384 17.4323 11.1938 16.2223 11.8188C16.0262 11.9148 15.8106 11.964 15.5923 11.9628C13.3743 11.9708 11.1553 11.9658 8.93334 11.9608C8.87534 11.9588 8.81834 11.9158 8.69934 11.8608Z" fill="#C5C5C5"/>
</svg>
