<svg width="419" height="1077" viewBox="0 0 419 1077" fill="none" xmlns="http://www.w3.org/2000/svg">
<path d="M129.71 630.848C141.993 576.204 168.795 527.695 229.398 483.138C251.714 467.892 283.637 449.015 320.065 441.841C377.763 430.482 415.052 465.056 417.305 508.853C419.258 546.9 408.426 585.179 382.709 621.009C350.725 665.588 306.125 683.664 256.56 686.587C227.403 688.304 202.109 680.658 178.397 669.981C162.856 662.981 148.22 654.815 134.723 645.136C129.859 641.647 128.253 637.344 129.71 630.848ZM461.281 0.922243C431.855 -0.888861 401.846 0.44934 371.175 8.51352C294.768 28.5559 224.86 64.589 162.63 118.652C123.212 152.879 91.7432 192.009 67.3853 235.589C45.2632 275.161 30.0892 316.043 17.9084 357.072C-15.6592 470.13 -0.683684 568.445 58.0953 652.568C63.3781 660.129 66.6533 667.501 64.4207 678.033C62.6836 686.18 62.5459 694.377 62.3372 702.436C60.9036 757.58 70.2018 809.246 87.1643 858.146C111.179 927.389 154.462 981.003 223.744 1012.71C290.241 1043.13 362.593 1047.66 444.138 1010.99C446.045 1010.13 448.121 1008.93 449.98 1010.56C450.771 1015.27 447.065 1019.83 445.479 1024.51C441.556 1036.06 436.815 1047.56 433.436 1059.13C430.743 1068.39 434.074 1074.6 440.56 1076.11C447.351 1077.69 454.126 1074.32 460.15 1065.03C480.853 1033.13 501.236 1001.09 521.69 969.088C524.886 964.105 527.22 958.899 528.664 953.515C532.952 937.52 527.56 928.876 511.208 927.443C494.424 925.973 478.537 922.495 462.644 918.938C449.56 916.004 436.42 913.177 423.091 910.851C415.979 909.6 408.548 908.737 401.003 909.061C390.367 909.524 381.953 915.394 379.026 922.994C376.181 930.362 378.86 936.233 387.791 940.525C398.246 945.538 410.129 947.657 422.673 948.241C431.445 948.648 440.275 948.97 450.178 952.362C428.297 962.812 408.236 970.158 387.659 975.222C345.726 985.553 308.509 980.183 273.861 967.186C215.439 945.274 176.442 905.075 152.164 851.285C134.088 811.251 126.288 767.19 121.329 721.991C120.888 717.958 119.983 713.807 122.975 708.319C129.768 708.115 133.507 711.515 138.04 713.558C173.26 729.41 210.603 740.639 254.436 736.36C305.654 731.37 354.368 713.83 393.848 673.899C456.297 610.731 478.007 541.129 463.506 470.064C452.449 415.862 399.312 384.666 337.045 390.578C278.665 396.136 226.857 424.155 178.971 461.899C139.344 493.106 110.535 531.531 91.6643 575.04C90.537 577.644 89.8871 581.141 85.487 581.414C81.7763 579.898 80.7792 576.303 79.3128 573.146C56.7889 524.734 49.2334 471.357 56.369 413.543C61.75 369.885 77.1624 326.515 93.8644 283.342C108.488 245.564 129.404 210.076 157.529 177.227C187.395 142.33 222.359 113.501 261.573 88.4094C325.297 47.6323 391.042 21.2289 461.34 18.1662C464.383 18.0427 467.483 17.8556 470.544 17.2109C474.327 16.4265 477.809 14.6387 478.908 10.5515C479.811 7.14011 477.622 5.45764 475.177 4.11451C471.099 1.85776 466.239 1.22619 461.281 0.922243Z" fill="#ECECEC"/>
</svg>
