<svg width="337" height="1056" viewBox="0 0 337 1056" fill="none" xmlns="http://www.w3.org/2000/svg">
<path d="M214.039 598.322C201.726 545.644 175.533 499.932 116.929 460.322C95.3605 446.873 64.5344 430.505 29.4949 425.891C-26.0035 418.586 -61.4721 454.896 -63.2174 497.916C-64.7296 535.289 -53.9659 572.044 -28.9353 605.416C2.19397 646.94 45.1835 661.685 92.7932 661.27C120.801 661.023 145.011 651.866 167.672 639.848C182.525 631.968 196.498 623.006 209.363 612.64C213.999 608.903 215.5 604.585 214.039 598.322ZM-110.277 3.62058C-82.0456 -0.0975995 -53.2242 -0.771517 -23.7031 5.09472C49.8391 19.6626 117.295 50.3131 177.552 99.12C215.719 130.019 246.303 166.242 270.102 207.291C291.717 244.565 306.674 283.58 318.759 322.937C352.062 431.388 338.623 528.617 282.997 614.849C277.997 622.599 274.923 630.032 277.167 640.194C278.912 648.054 279.123 656.069 279.4 663.944C281.302 717.829 272.868 769.018 257.05 818.007C234.657 887.375 193.616 942.718 127.407 978.333C63.8598 1012.51 -5.55565 1021.73 -84.1892 991.218C-86.028 990.503 -88.0327 989.467 -89.8015 991.19C-90.5165 995.846 -86.9151 1000.07 -85.3479 1004.55C-81.471 1015.59 -76.8106 1026.54 -73.4564 1037.63C-70.7822 1046.53 -73.9211 1052.82 -80.1337 1054.73C-86.638 1056.72 -93.1737 1053.87 -99.0454 1045.18C-119.224 1015.32 -139.098 985.31 -159.04 955.332C-162.154 950.665 -164.445 945.724 -165.882 940.548C-170.152 925.175 -165.058 916.358 -149.373 913.873C-133.274 911.325 -118.056 906.871 -102.832 902.337C-90.2998 898.601 -77.712 894.964 -64.9385 891.806C-58.123 890.112 -50.9973 888.776 -43.7508 888.595C-33.5357 888.344 -25.4024 893.534 -22.5201 900.78C-19.719 907.804 -22.2348 913.728 -30.7675 918.521C-40.7568 924.118 -52.1442 926.978 -64.1812 928.379C-72.5983 929.358 -81.0719 930.256 -90.5468 934.232C-69.4407 943.015 -50.1127 948.879 -30.3096 952.476C10.0441 959.816 45.7218 952.1 78.8598 937.086C134.736 911.775 171.791 869.847 194.585 815.588C211.556 775.204 218.624 731.558 222.953 686.986C223.338 683.009 224.168 678.886 221.243 673.712C214.72 673.961 211.163 677.537 206.83 679.836C173.171 697.682 137.428 711.142 95.3072 709.852C46.0905 708.352 -0.842971 694.403 -39.1249 657.925C-99.6783 600.221 -121.184 533.524 -107.94 463.001C-97.8421 409.213 -47.1281 375.163 12.7047 376.833C68.8032 378.414 118.806 402.416 165.137 436.198C203.477 464.126 231.5 499.835 250.031 541.177C251.138 543.653 251.795 547.032 256.022 547.009C259.57 545.28 260.493 541.695 261.87 538.507C283.032 489.628 289.776 436.88 282.375 380.758C276.793 338.378 261.583 296.943 245.137 255.786C230.738 219.772 210.321 186.417 183.007 156.121C154.003 123.936 120.163 98.0268 82.2772 76.0575C20.7128 40.3543 -42.6538 18.8549 -110.17 20.5042C-113.093 20.5845 -116.07 20.6063 -119.015 20.1776C-122.654 19.6599 -126.014 18.1401 -127.108 14.2118C-128.008 10.9322 -125.921 9.14047 -123.587 7.6641C-119.694 5.18541 -115.034 4.24587 -110.277 3.62058Z" fill="#ECECEC"/>
</svg>
