<svg width="148" height="43" viewBox="0 0 148 43" fill="none" xmlns="http://www.w3.org/2000/svg">
<path d="M9.47749 1.96175C10.4976 0.200901 13.048 0.200901 14.0681 1.96175L22.2293 16.0485C23.2494 17.8094 21.9743 20.0105 19.934 20.0105H3.61165C1.57136 20.0105 0.296172 17.8094 1.31632 16.0485L9.47749 1.96175Z" fill="#C5C5C5"/>
<path d="M23.8599 41.038C22.8398 42.7988 20.2895 42.7988 19.2694 41.038L11.1082 26.9512C10.088 25.1903 11.3632 22.9893 13.4035 22.9893H29.7259C31.7661 22.9893 33.0413 25.1903 32.0211 26.9512L23.8599 41.038Z" fill="#C5C5C5"/>
<path d="M50.2334 19.8933H46.5817V26.9367C46.5817 27.5432 46.7191 27.9834 46.994 28.2573C47.2689 28.5116 47.6713 28.6584 48.2014 28.6976C48.7511 28.7171 49.4284 28.7074 50.2334 28.6682V31.5149C47.799 31.8084 46.0516 31.603 44.9915 30.8986C43.9313 30.1748 43.4012 28.8541 43.4012 26.9367V19.8933H40.6919V16.8412H43.4012V13.6716L46.5817 12.7325V16.8412H50.2334V19.8933ZM60.8632 16.4597C62.5515 16.4597 63.916 16.9977 64.9566 18.0738C65.997 19.1498 66.5174 20.627 66.5174 22.5052V31.5149H63.3369V22.8281C63.3369 21.7324 63.0424 20.8911 62.4534 20.3042C61.8644 19.7172 61.0594 19.4238 60.0386 19.4238C58.9195 19.4238 58.0163 19.7759 57.3293 20.4803C56.6421 21.1651 56.2986 22.2216 56.2986 23.6498V31.5149H53.1181V10.9717H56.2986V18.7194C57.2605 17.2129 58.782 16.4597 60.8632 16.4597ZM72.445 25.528C72.6806 26.6432 73.2206 27.5041 74.0647 28.1106C74.909 28.6976 75.9397 28.991 77.1569 28.991C78.8453 28.991 80.1116 28.3846 80.9558 27.1715L83.5768 28.6976C82.124 30.8301 79.9743 31.8964 77.1274 31.8964C74.7323 31.8964 72.7984 31.1726 71.326 29.7247C69.8535 28.2573 69.1173 26.4085 69.1173 24.178C69.1173 21.9868 69.8438 20.1574 71.2965 18.6901C72.7494 17.2032 74.6145 16.4597 76.8918 16.4597C79.0515 16.4597 80.8184 17.2129 82.1927 18.7194C83.5866 20.226 84.2835 22.0552 84.2835 24.2074C84.2835 24.54 84.2444 24.9803 84.1657 25.528H72.445ZM72.4156 22.9455H81.0736C80.8577 21.752 80.3571 20.8519 79.5717 20.2455C78.806 19.639 77.903 19.3357 76.8624 19.3357C75.6844 19.3357 74.7029 19.6585 73.9175 20.3042C73.1322 20.9498 72.6316 21.8302 72.4156 22.9455ZM95.4163 16.4597C97.4384 16.4597 99.1661 17.2129 100.599 18.7194C102.032 20.2063 102.749 22.0258 102.749 24.178C102.749 26.3498 102.032 28.1791 100.599 29.666C99.1661 31.1529 97.4384 31.8964 95.4163 31.8964C93.1782 31.8964 91.4603 31.0747 90.2627 29.4312V37.3844H87.0822V16.8412H90.2627V18.9542C91.4603 17.2912 93.1782 16.4597 95.4163 16.4597ZM91.5879 27.553C92.4714 28.4334 93.5806 28.8736 94.9157 28.8736C96.2506 28.8736 97.3599 28.4334 98.2434 27.553C99.1269 26.6531 99.5686 25.528 99.5686 24.178C99.5686 22.8281 99.1269 21.7129 98.2434 20.8324C97.3599 19.9325 96.2506 19.4824 94.9157 19.4824C93.5806 19.4824 92.4714 19.9325 91.5879 20.8324C90.7045 21.7129 90.2627 22.8281 90.2627 24.178C90.2627 25.528 90.7045 26.6531 91.5879 27.553ZM108.135 25.528C108.37 26.6432 108.91 27.5041 109.754 28.1106C110.599 28.6976 111.629 28.991 112.847 28.991C114.535 28.991 115.801 28.3846 116.646 27.1715L119.266 28.6976C117.814 30.8301 115.664 31.8964 112.817 31.8964C110.422 31.8964 108.488 31.1726 107.016 29.7247C105.543 28.2573 104.807 26.4085 104.807 24.178C104.807 21.9868 105.534 20.1574 106.986 18.6901C108.439 17.2032 110.304 16.4597 112.582 16.4597C114.741 16.4597 116.508 17.2129 117.882 18.7194C119.276 20.226 119.973 22.0552 119.973 24.2074C119.973 24.54 119.934 24.9803 119.855 25.528H108.135ZM108.105 22.9455H116.763C116.547 21.752 116.047 20.8519 115.261 20.2455C114.496 19.639 113.593 19.3357 112.552 19.3357C111.374 19.3357 110.393 19.6585 109.607 20.3042C108.822 20.9498 108.321 21.8302 108.105 22.9455ZM125.189 25.528C125.424 26.6432 125.964 27.5041 126.809 28.1106C127.653 28.6976 128.683 28.991 129.901 28.991C131.589 28.991 132.855 28.3846 133.7 27.1715L136.321 28.6976C134.868 30.8301 132.718 31.8964 129.871 31.8964C127.476 31.8964 125.542 31.1726 124.07 29.7247C122.597 28.2573 121.861 26.4085 121.861 24.178C121.861 21.9868 122.587 20.1574 124.04 18.6901C125.493 17.2032 127.358 16.4597 129.636 16.4597C131.795 16.4597 133.562 17.2129 134.936 18.7194C136.33 20.226 137.027 22.0552 137.027 24.2074C137.027 24.54 136.988 24.9803 136.91 25.528H125.189ZM125.159 22.9455H133.817C133.601 21.752 133.101 20.8519 132.316 20.2455C131.55 19.639 130.647 19.3357 129.606 19.3357C128.428 19.3357 127.447 19.6585 126.661 20.3042C125.876 20.9498 125.375 21.8302 125.159 22.9455ZM143.006 19.3064C143.811 17.4868 145.323 16.577 147.542 16.577V20.0107C146.324 19.9325 145.264 20.226 144.361 20.8911C143.458 21.5368 143.006 22.6128 143.006 24.1194V31.5149H139.826V16.8412H143.006V19.3064Z" fill="#C5C5C5"/>
</svg>
