<svg width="100" height="45" viewBox="0 0 100 45" fill="none" xmlns="http://www.w3.org/2000/svg">
<path d="M1.59444 37.6328L0.869693 41.3391C0.77306 41.6242 0.77306 41.8618 0.77306 42.1469C0.77306 42.9546 1.25622 43.3348 1.93265 43.3348C2.80234 43.3348 3.43045 42.7646 3.67204 41.3391L4.4451 37.6328H5.21816L4.49341 41.3391C4.1552 43.1922 3.23719 43.9525 1.88433 43.9525C0.77306 43.9525 0 43.3823 0 42.0993L0.0483163 41.1965L0.724744 37.5853H1.59444V37.6328ZM6.32943 43.9525L6.90922 40.7689C7.05417 40.2462 7.05417 39.8186 7.1508 39.4384H7.82723L7.68228 40.2937C8.06881 39.6285 8.69693 39.2959 9.37335 39.2959C9.90483 39.2959 10.4846 39.6285 10.4846 40.5313L10.4363 41.2916L9.90483 43.8574H9.08346L9.56662 41.2916L9.61493 40.6739C9.61493 40.2462 9.42167 39.9136 8.89019 39.9136C8.35871 39.9136 7.53734 40.5313 7.34407 41.6717L6.90922 43.8574H6.32943V43.9525ZM12.1757 43.9525L13.0454 39.4384H13.8668L12.9971 43.9525H12.1757ZM13.1903 38.1555C13.1903 37.9179 13.4802 37.6328 13.7218 37.6328C14.0117 37.6328 14.205 37.8229 14.205 38.108C14.205 38.4406 14.0117 38.6307 13.6735 38.6307C13.3836 38.6307 13.1903 38.4406 13.1903 38.1555ZM17.2489 38.2505L17.0556 39.4384H18.1186L17.9736 40.0086H16.9107L16.5242 42.1944C16.4275 42.4795 16.4275 42.6695 16.4275 42.9546C16.4275 43.1922 16.5725 43.3348 16.8624 43.3348H17.2006L17.104 43.9525L16.5242 44C15.8477 44 15.5578 43.6199 15.5578 43.1447L15.6061 42.2894L16.0893 40.0086H15.4129L15.5578 39.4384H16.2343L16.4275 38.4406L17.2489 38.2505ZM22.3221 43.6674C21.9839 43.8574 21.4041 44 20.8243 44C19.6164 44 19.0849 43.1922 19.0849 42.1944C19.0849 40.8639 20.0996 39.2959 21.549 39.2959C22.4187 39.2959 22.9019 39.8186 22.9019 40.4363C22.9019 41.6242 21.549 41.9568 19.858 41.8618C19.8097 42.0993 19.858 42.4795 19.9546 42.7646C20.1479 43.1447 20.4861 43.3348 20.9693 43.3348C21.5007 43.3348 21.8873 43.1447 22.1772 43.0022L22.3221 43.6674ZM21.4041 39.9136C20.6794 39.9136 20.1479 40.6263 19.9546 41.2916C21.1625 41.2916 22.0805 41.149 22.0805 40.4363C22.0805 40.1037 21.8389 39.9136 21.4041 39.9136ZM28.9898 37.3002L27.9751 42.4795C27.8785 42.9546 27.7818 43.4773 27.7818 43.8574H27.0088L27.1537 43.0022C26.7672 43.6674 26.1391 44 25.5593 44C24.6413 44 24.2064 43.2873 24.2064 42.3369C24.2064 40.7689 25.4143 39.2959 27.0088 39.2959C27.2987 39.2959 27.6369 39.3434 27.8302 39.4384L28.2167 37.3002H28.9898ZM27.6852 40.1037C27.5403 39.9611 27.2987 39.9136 26.9605 39.9136C25.8975 39.9136 24.9795 41.0065 24.9795 42.1944C24.9795 42.7646 25.2211 43.3348 25.8975 43.3348C26.4773 43.3348 27.2504 42.6695 27.4436 41.6717L27.6852 40.1037ZM33.6764 37.7279C34.1113 37.6328 34.5944 37.5853 35.0293 37.5853C35.7057 37.5853 36.1889 37.7279 36.5271 38.013C36.817 38.2981 37.0103 38.6307 37.0103 39.0108C37.0103 39.8186 36.3338 40.4363 35.6574 40.6263C36.2855 40.8164 36.7204 41.2916 36.7204 42.0043C36.7204 42.6695 36.3821 43.1447 35.9956 43.4773C35.5124 43.8574 34.7877 44 33.918 44L32.5652 43.9525L33.6764 37.7279ZM33.4348 43.2873L34.1113 43.3348C35.0293 43.3348 35.9473 42.9546 35.9473 41.9568C35.9473 41.1965 35.3192 40.8639 34.5944 40.8639H33.9663L33.4348 43.2873ZM34.0146 40.2937H34.6428C35.5124 40.2937 36.2855 39.8186 36.2855 39.1058C36.2855 38.4881 35.8023 38.2505 35.1259 38.2505L34.4495 38.2981L34.0146 40.2937ZM41.2621 43.9525L41.407 42.8121C40.9239 43.7149 40.2474 44.0475 39.6193 44.0475C38.8463 44.0475 38.3631 43.3823 38.3631 42.622C38.3631 41.0065 39.5227 39.4384 41.5037 39.4384C41.9385 39.4384 42.47 39.486 42.7599 39.6285L42.2767 41.9568C42.1318 42.7646 42.0835 43.5248 42.0835 44H41.2621V43.9525ZM41.7936 39.9611L41.2621 39.9136C40.1025 39.9136 39.0878 41.1015 39.0878 42.3369C39.0878 42.8596 39.2811 43.3348 39.9092 43.3348C40.5857 43.3348 41.3104 42.4795 41.5037 41.2916L41.7936 39.9611ZM44.0161 43.9525L44.6442 40.7689L44.8375 39.4384H45.5139L45.369 40.2937C45.7555 39.6285 46.3836 39.2959 47.06 39.2959C47.5915 39.2959 48.2196 39.6285 48.2196 40.5313L48.123 41.2916L47.5915 43.8574H46.7701L47.2533 41.2916L47.3016 40.6739C47.3016 40.2462 47.1083 39.9136 46.5769 39.9136C46.0454 39.9136 45.224 40.5313 45.0307 41.6717L44.6442 43.8574H44.0161V43.9525ZM49.959 43.9525L51.2152 37.3952H51.9883L51.1669 41.4816C51.3119 41.3391 51.5051 41.149 51.5534 41.0065L53.1962 39.4384H54.1142L52.1332 41.2916L53.4378 43.9525H52.5681L51.5051 41.7667L50.877 42.2894L50.5388 44H49.959V43.9525ZM57.7862 43.9525L58.511 40.0086H57.9312L58.0278 39.4384H58.6559L58.7042 39.1533C58.8492 38.4881 59.0425 37.9654 59.4773 37.5853C59.7189 37.3002 60.1537 37.1577 60.5403 37.1577C60.8785 37.1577 61.0717 37.2527 61.1684 37.3002L60.9268 37.9179C60.8302 37.8229 60.6852 37.8229 60.4919 37.8229C59.8638 37.8229 59.5256 38.4406 59.3807 39.1533V39.4384H60.3953L60.2504 40.0086H59.284L58.511 43.9525H57.7862ZM65.5168 41.1965C65.5168 42.622 64.5022 44.0475 62.9561 44.0475C61.8448 44.0475 61.2167 43.1922 61.2167 42.1944C61.2167 40.7689 62.2796 39.3434 63.7775 39.3434C64.9854 39.2959 65.5168 40.2462 65.5168 41.1965ZM62.0381 42.1469C62.0381 42.8596 62.4246 43.3823 63.101 43.3823C64.0674 43.3823 64.7438 42.1944 64.7438 41.1965C64.7438 40.6739 64.4539 39.9611 63.6325 39.9611C62.7145 39.9136 62.0381 41.1015 62.0381 42.1469ZM66.9663 43.9525L67.4978 41.0065C67.6428 40.4363 67.6911 39.8186 67.7394 39.4384H68.4158L68.3192 40.4363C68.5608 39.8186 69.0922 39.3434 69.7204 39.3434H69.9136L69.7687 40.1037H69.5754C68.899 40.1037 68.3192 40.8639 68.0776 41.9568L67.6911 43.9525H66.9663ZM74.6969 41.9568L73.6823 43.9525H72.8609L76.1947 37.7279H77.1127L78.0307 43.9525H77.2094L76.9195 41.9568H74.6969ZM76.8712 41.2916L76.5813 39.486C76.5329 39.1533 76.5329 38.6782 76.4363 38.3456L75.9048 39.486L74.9868 41.2916H76.8712ZM79.6252 43.9525L80.3499 40.0086H79.7701L79.9151 39.4384H80.4949L80.5915 39.1533C80.6881 38.4881 80.9297 37.9654 81.3163 37.5853C81.5578 37.3002 81.9927 37.1577 82.3792 37.1577C82.7174 37.1577 82.9107 37.2527 83.0073 37.3002L82.8141 37.9179C82.6691 37.8229 82.5242 37.8229 82.3309 37.8229C81.7028 37.8229 81.3646 38.4406 81.2679 39.1533L81.1713 39.3434H82.1859L82.041 39.9611H81.0264L80.3016 43.8574H79.6252V43.9525ZM83.0556 43.9525L83.5871 41.0065L83.877 39.4384H84.5534L84.4085 40.4363C84.6984 39.8186 85.2299 39.3434 85.8097 39.3434H86.0512L85.9063 40.1037H85.713C85.0366 40.1037 84.4085 40.8639 84.2152 41.9568L83.8287 43.9525H83.0556ZM86.9209 43.9525L87.7906 39.4384H88.612L87.7423 43.9525H86.9209ZM87.9356 38.1555C87.9356 37.9179 88.1288 37.6328 88.4671 37.6328C88.7086 37.6328 88.9502 37.8229 88.9502 38.108C88.9502 38.4406 88.7086 38.6307 88.3704 38.6307C88.1288 38.6307 87.9356 38.4406 87.9356 38.1555ZM93.0571 43.7149C92.7672 43.8574 92.284 44 91.7042 44C90.4963 44 89.9649 43.1922 89.9649 42.2894C89.9649 40.7689 91.0761 39.3434 92.7189 39.3434C93.1054 39.3434 93.5403 39.486 93.6369 39.581L93.4436 40.1512C93.2504 40.1037 93.0571 39.9611 92.7189 39.9611C91.511 39.9611 90.7379 41.1015 90.7379 42.1469C90.7379 42.8596 91.1728 43.3348 91.8975 43.3348C92.3807 43.3348 92.7189 43.1922 92.9605 43.0497L93.0571 43.7149ZM97.6471 43.9525L97.7438 42.8121C97.3089 43.7149 96.6325 44.0475 96.0044 44.0475C95.183 44.0475 94.7482 43.3823 94.7482 42.622C94.7482 41.0065 95.8594 39.4384 97.8887 39.4384C98.3236 39.4384 98.855 39.486 99.0966 39.6285L98.6618 41.9568C98.5168 42.7646 98.4202 43.5248 98.4202 44H97.6471V43.9525ZM98.1786 39.9611L97.6471 39.9136C96.4876 39.9136 95.4729 41.1015 95.4729 42.3369C95.4729 42.8596 95.6662 43.3348 96.2943 43.3348C96.9707 43.3348 97.6955 42.4795 97.8887 41.2916L98.1786 39.9611ZM19.6647 11.0238L16.7657 24.2333C15.896 27.0842 14.3016 29.0799 10.9195 29.2225C8.0205 29.2225 6.86091 27.3218 7.58565 23.3305L10.1464 11.0238H5.89458L2.94729 25.1361C2.41581 30.5529 5.653 32.0734 10.5813 31.9309C15.2679 31.7883 18.5051 29.6976 20.3411 25.5162L23.5783 11.0238H19.6647ZM55.4671 17.676L57.1581 24.5184H50.877L55.4671 17.676ZM56.7716 11.0238L42.5183 31.4557H46.3836L49.0893 27.5119H57.9795L58.8492 31.4557H63.4392L58.366 11.0238H56.7716ZM70.6384 31.5983H78.8038C86.1479 31.2657 87.7423 27.987 85.3748 22.5227L76.4363 5.36933L70.6384 31.5983ZM90.6896 0C83.3455 0.332613 81.7994 3.65875 84.1669 9.07559L93.0571 26.2289L98.855 0H90.6896ZM29.183 28.8898L30.6808 22H32.3719C34.836 22 36.9136 22.8553 36.9136 25.1361C36.9136 27.892 34.1596 29.0324 31.0674 29.0324L29.183 28.8898ZM32.4202 13.6371H34.4495C36.672 13.6371 38.0249 14.1598 38.0249 15.9179C38.0249 18.0086 35.9956 19.3391 32.9517 19.3391H31.2606L32.4202 13.6371ZM29.183 11.0238L28.8448 11.0713L24.5447 31.5508H32.8067C35.6091 31.5508 37.2035 30.7905 38.2665 30.1728C39.9575 29.0799 41.1654 27.3218 41.6003 25.1836C42.1318 22.2851 40.1025 20.7646 37.59 20.527C40.1508 19.9568 42.325 18.1037 42.47 15.4428C42.8082 11.0238 37.735 11.0238 37.735 11.0238H29.183Z" fill="#C5C5C5"/>
</svg>
