<svg width="354" height="1000" viewBox="0 0 354 1000" fill="none" xmlns="http://www.w3.org/2000/svg">
<path d="M130.339 555.645C135.618 506.258 154.114 463.984 202.359 428.703C220.239 416.786 246.105 402.455 277.039 399.406C326.035 394.578 361.835 430.271 368.112 471.047C373.561 506.47 367.928 540.847 349.123 571.488C325.739 609.612 288.782 621.951 246.019 619.769C220.862 618.482 198.137 608.908 176.488 596.683C162.298 588.669 148.78 579.663 136.102 569.369C131.533 565.659 129.714 561.516 130.339 555.645ZM356.211 5.05793C330.473 0.47861 304.54 -1.24204 278.694 3.20003C214.304 14.2225 157.136 40.6929 108.415 84.6153C77.5524 112.421 54.0778 145.55 37.2189 183.502C21.9066 217.962 12.7587 254.32 6.22516 291.11C-11.7807 392.487 10.9239 485.002 70.2765 568.694C75.6108 576.215 79.1828 583.365 78.2824 592.897C77.577 600.27 78.2659 607.846 78.8794 615.288C83.0733 666.209 96.2454 714.966 115.802 761.919C143.49 828.404 186.374 882.318 249.68 918.508C310.44 953.241 373.731 964.569 440.944 938.652C442.516 938.045 444.201 937.14 445.977 938.837C447.128 943.269 444.359 947.127 443.444 951.31C441.174 961.615 438.191 971.8 436.397 982.172C434.971 990.488 438.477 996.564 444.26 998.601C450.314 1000.73 455.866 998.279 460.182 990.272C475.019 962.779 489.564 935.124 504.174 907.505C506.458 903.206 507.972 898.616 508.695 893.772C510.842 879.385 505.306 870.849 490.961 867.909C476.238 864.893 462.095 860.106 447.939 855.244C436.285 851.237 424.593 847.323 412.786 843.854C406.485 841.995 399.946 840.463 393.424 840.019C384.231 839.398 377.502 844.004 375.709 850.752C373.965 857.295 376.871 862.995 385.052 867.85C394.627 873.523 405.158 876.657 416.111 878.435C423.771 879.678 431.472 880.846 440.409 884.964C422.433 892.483 405.733 897.306 388.359 899.966C352.955 905.396 320.099 896.753 288.722 881.3C235.815 855.249 197.977 814.179 171.584 761.977C151.935 723.123 140.814 681.555 132.049 639.214C131.268 635.436 130.072 631.503 132.13 626.716C138.01 627.197 141.593 630.715 145.732 633.053C177.887 651.206 211.431 665.286 249.083 665.648C293.078 666.078 333.661 654.641 364.015 621.56C412.028 569.229 424.02 506.921 404.416 439.686C389.465 388.407 340.234 354.28 286.732 353.612C236.571 353.001 194.334 373.835 156.463 404.063C125.121 429.051 103.888 461.79 91.7878 500.216C91.0656 502.517 90.8459 505.69 87.051 505.509C83.6783 503.739 82.4576 500.312 80.8724 497.244C56.5334 450.194 44.7061 400.025 45.2018 347.194C45.5697 307.299 54.6793 268.66 64.9285 230.33C73.9046 196.792 88.5718 165.994 109.762 138.351C132.261 108.984 159.787 85.7371 191.374 66.3708C242.703 34.8977 297.204 16.9335 357.963 21.0311C360.595 21.2169 363.269 21.3494 365.864 21.0543C369.072 20.7011 371.921 19.3892 372.472 15.7129C372.92 12.6432 370.852 10.8693 368.596 9.38446C364.831 6.89256 360.548 5.82838 356.211 5.05793Z" fill="#ECECEC"/>
</svg>
